<svg width="117" height="80" viewBox="0 0 117 80" fill="none" xmlns="http://www.w3.org/2000/svg">
<path fill-rule="evenodd" clip-rule="evenodd" d="M69.1977 41.4888C70.5445 42.5854 71.6232 43.9751 72.3514 45.5518C73.0796 47.1286 73.438 48.8509 73.3995 50.5873C73.4456 52.1247 73.176 53.6552 72.6072 55.0843C72.0385 56.5134 71.1827 57.8107 70.0928 58.8959C69.0029 59.9812 67.7019 60.8314 66.2704 61.3941C64.8389 61.9567 63.3072 62.2198 61.77 62.1671C59.5698 62.24 57.3963 61.6671 55.5179 60.5192C53.6394 59.3712 52.1381 57.6984 51.1993 55.7072C50.2686 57.6989 48.7743 59.374 46.9014 60.5251C45.0284 61.6762 42.859 62.2528 40.6617 62.1836C33.9371 62.1836 29.0074 57.3201 29.0074 50.6038V50.0993C28.5061 50.7338 27.8809 51.2597 27.17 51.645C26.459 52.0303 25.6771 52.2671 24.8718 52.3408L27.5351 56.8652C28.8668 59.1232 30.0165 59.7849 31.7204 59.7849C32.1442 59.7908 32.5669 59.7407 32.9777 59.6361V61.7039C32.3133 61.8766 31.6294 61.9628 30.9429 61.9603C28.4615 61.9603 26.3524 60.7031 24.7643 57.8246L21.8362 52.531H18.6104V61.7039H15.7155V39.4872H23.0521C27.7088 39.4872 29.9256 41.9686 30.2564 45.153C30.3557 44.9545 30.4632 44.756 30.579 44.5658V18.8089H32.2581L45.4921 35.3515V0H0V80H76.4681V41.4888H69.1977ZM48.4781 21.2903H57.8578L63.9703 39.0074H61.7701H48.4781V31.158H57.1051V28.6766H48.4781V21.2903ZM45.4923 39.9668V39.8097L33.2756 24.4747V41.4474C35.3867 39.8098 37.9901 38.9351 40.6618 38.966C42.3225 38.9752 43.9647 39.3154 45.4923 39.9668ZM40.6618 41.4882C35.6411 41.4882 32.0679 45.2764 32.0679 50.5866C32.0679 55.8968 35.6411 59.685 40.6618 59.685C45.6824 59.685 49.2308 55.8637 49.2308 50.5866C49.2308 45.3095 45.6576 41.4882 40.6618 41.4882ZM61.7702 59.6935C56.7413 59.6935 53.1763 55.8804 53.1763 50.595C53.1763 45.2766 56.7578 41.4966 61.7454 41.4966C66.733 41.4966 70.3062 45.3097 70.3062 50.595C70.3062 55.8804 66.7992 59.6935 61.7702 59.6935ZM23.0438 41.9679H18.6683V50.0407H23.0438C26.3523 50.0407 27.3697 48.039 27.3697 46.0043C27.3697 43.9696 26.3771 41.9679 23.0438 41.9679ZM51.1993 45.4917C51.9081 43.932 52.9767 42.5628 54.3176 41.4966H48.0893C49.4276 42.5633 50.4935 43.9326 51.1993 45.4917ZM71.7783 25.8071C71.8941 25.5093 72.1506 24.6574 72.1506 24.5912C72.1577 24.6145 72.1738 24.6706 72.1957 24.7473C72.2752 25.0254 72.432 25.5737 72.5228 25.8071L77.0803 39.0412H67.2209L71.7783 25.8071ZM48.4781 0H116.352L116.328 80H79.4045V41.4723H84.7395C84.0003 42.4157 83.6036 43.5823 83.6146 44.7808C83.6146 47.8908 85.6411 50.1572 89.7933 51.2655C93.9455 52.3739 95.0538 53.6311 95.0538 55.8892C95.0538 58.2961 93.0191 59.7767 90.3888 59.7767C89.1148 59.7738 87.8558 59.5018 86.6941 58.9787C85.5324 58.4556 84.4943 57.6931 83.6477 56.7411L82.986 59.4789C83.9884 60.3965 85.1618 61.1076 86.439 61.5717C87.7163 62.0358 89.0725 62.2437 90.4302 62.1836C94.2432 62.1836 97.8743 59.9669 97.8743 55.6328C97.8743 51.9438 95.6907 49.8925 90.9099 48.6352C87.4277 47.7088 86.4268 46.3772 86.4268 44.7808C86.4268 42.713 88.0232 41.4144 90.8024 41.4144C92.7452 41.5274 94.612 42.2091 96.1704 43.3747L96.8321 40.9677C95.0906 39.6726 92.9726 38.9841 90.8024 39.0074H80.3226L87.2953 18.8089H84.4087L79.0737 35.2109C78.9438 35.6614 78.8443 36.1201 78.7759 36.584C78.7759 36.584 78.5526 35.6162 78.4037 35.2109L73.1514 18.8089H71.2986L66.005 35.2109C65.8474 35.6588 65.723 36.1177 65.6328 36.584C65.6211 36.5429 65.5948 36.4054 65.561 36.2283C65.4994 35.9055 65.4128 35.4513 65.3433 35.2109L60.058 18.8089H48.4781V0Z" fill="#15803D"/>
</svg>
